<svg xmlns="http://www.w3.org/2000/svg" xmlns:xlink="http://www.w3.org/1999/xlink" width="140" zoomAndPan="magnify" viewBox="0 0 104.88 30.000001" height="40" preserveAspectRatio="xMidYMid meet" version="1.0"><defs><g/></defs><g fill="#000000" fill-opacity="1"><g transform="translate(1.502256, 19.214756)"><g><path d="M 0.828125 -9.453125 L 3.28125 -9.453125 L 5.890625 -3.109375 L 6 -3.109375 L 8.609375 -9.453125 L 11.078125 -9.453125 L 11.078125 0 L 9.125 0 L 9.125 -6.15625 L 9.046875 -6.15625 L 6.609375 -0.046875 L 5.28125 -0.046875 L 2.84375 -6.171875 L 2.765625 -6.171875 L 2.765625 0 L 0.828125 0 Z M 0.828125 -9.453125 "/></g></g></g><g fill="#000000" fill-opacity="1"><g transform="translate(13.23528, 19.214756)"><g><path d="M 2.8125 0.140625 C 2.132812 0.140625 1.570312 -0.0351562 1.125 -0.390625 C 0.675781 -0.742188 0.453125 -1.273438 0.453125 -1.984375 C 0.453125 -2.515625 0.578125 -2.925781 0.828125 -3.21875 C 1.078125 -3.519531 1.40625 -3.738281 1.8125 -3.875 C 2.21875 -4.019531 2.648438 -4.117188 3.109375 -4.171875 C 3.734375 -4.222656 4.175781 -4.28125 4.4375 -4.34375 C 4.695312 -4.414062 4.828125 -4.566406 4.828125 -4.796875 L 4.828125 -4.828125 C 4.828125 -5.117188 4.734375 -5.34375 4.546875 -5.5 C 4.367188 -5.664062 4.113281 -5.75 3.78125 -5.75 C 3.425781 -5.75 3.144531 -5.671875 2.9375 -5.515625 C 2.726562 -5.359375 2.585938 -5.164062 2.515625 -4.9375 L 0.703125 -5.078125 C 0.835938 -5.722656 1.171875 -6.234375 1.703125 -6.609375 C 2.242188 -6.992188 2.941406 -7.1875 3.796875 -7.1875 C 4.316406 -7.1875 4.804688 -7.101562 5.265625 -6.9375 C 5.722656 -6.769531 6.09375 -6.507812 6.375 -6.15625 C 6.65625 -5.800781 6.796875 -5.34375 6.796875 -4.78125 L 6.796875 0 L 4.9375 0 L 4.9375 -0.984375 L 4.875 -0.984375 C 4.707031 -0.648438 4.453125 -0.378906 4.109375 -0.171875 C 3.765625 0.0351562 3.332031 0.140625 2.8125 0.140625 Z M 3.375 -1.21875 C 3.800781 -1.21875 4.148438 -1.34375 4.421875 -1.59375 C 4.703125 -1.84375 4.84375 -2.15625 4.84375 -2.53125 L 4.84375 -3.28125 C 4.769531 -3.226562 4.648438 -3.179688 4.484375 -3.140625 C 4.328125 -3.109375 4.15625 -3.078125 3.96875 -3.046875 C 3.789062 -3.015625 3.628906 -2.988281 3.484375 -2.96875 C 3.140625 -2.914062 2.859375 -2.816406 2.640625 -2.671875 C 2.429688 -2.523438 2.328125 -2.316406 2.328125 -2.046875 C 2.328125 -1.773438 2.425781 -1.566406 2.625 -1.421875 C 2.820312 -1.285156 3.070312 -1.21875 3.375 -1.21875 Z M 3.375 -1.21875 "/></g></g></g><g fill="#000000" fill-opacity="1"><g transform="translate(20.501847, 19.214756)"><g><path d="M 0.78125 0 L 0.78125 -7.09375 L 2.6875 -7.09375 L 2.6875 -5.859375 L 2.765625 -5.859375 C 2.890625 -6.296875 3.101562 -6.625 3.40625 -6.84375 C 3.71875 -7.070312 4.070312 -7.1875 4.46875 -7.1875 C 4.65625 -7.1875 4.832031 -7.160156 5 -7.109375 C 5.164062 -7.066406 5.3125 -7.007812 5.4375 -6.9375 L 4.84375 -5.3125 C 4.75 -5.351562 4.644531 -5.390625 4.53125 -5.421875 C 4.425781 -5.453125 4.304688 -5.46875 4.171875 -5.46875 C 3.773438 -5.46875 3.4375 -5.332031 3.15625 -5.0625 C 2.882812 -4.789062 2.75 -4.441406 2.75 -4.015625 L 2.75 0 Z M 0.78125 0 "/></g></g></g><g fill="#000000" fill-opacity="1"><g transform="translate(25.798189, 19.214756)"><g><path d="M 0.78125 0 L 0.78125 -9.453125 L 2.75 -9.453125 L 2.75 -4.40625 L 2.859375 -4.40625 L 5.125 -7.09375 L 7.390625 -7.09375 L 4.75 -4.015625 L 7.515625 0 L 5.21875 0 L 3.28125 -2.859375 L 2.75 -2.25 L 2.75 0 Z M 0.78125 0 "/></g></g></g><g fill="#000000" fill-opacity="1"><g transform="translate(33.083213, 19.214756)"><g><path d="M 4.015625 0.140625 C 3.285156 0.140625 2.65625 -0.00390625 2.125 -0.296875 C 1.601562 -0.597656 1.203125 -1.019531 0.921875 -1.5625 C 0.640625 -2.113281 0.5 -2.765625 0.5 -3.515625 C 0.5 -4.242188 0.640625 -4.882812 0.921875 -5.4375 C 1.203125 -5.988281 1.597656 -6.414062 2.109375 -6.71875 C 2.628906 -7.03125 3.238281 -7.1875 3.9375 -7.1875 C 4.5625 -7.1875 5.125 -7.050781 5.625 -6.78125 C 6.132812 -6.519531 6.535156 -6.117188 6.828125 -5.578125 C 7.117188 -5.046875 7.265625 -4.378906 7.265625 -3.578125 L 7.265625 -3.046875 L 2.4375 -3.046875 L 2.4375 -3.03125 C 2.4375 -2.507812 2.582031 -2.09375 2.875 -1.78125 C 3.164062 -1.476562 3.554688 -1.328125 4.046875 -1.328125 C 4.378906 -1.328125 4.664062 -1.394531 4.90625 -1.53125 C 5.144531 -1.675781 5.3125 -1.882812 5.40625 -2.15625 L 7.234375 -2.03125 C 7.085938 -1.375 6.734375 -0.847656 6.171875 -0.453125 C 5.609375 -0.0546875 4.890625 0.140625 4.015625 0.140625 Z M 2.4375 -4.265625 L 5.421875 -4.265625 C 5.421875 -4.679688 5.285156 -5.023438 5.015625 -5.296875 C 4.742188 -5.578125 4.394531 -5.71875 3.96875 -5.71875 C 3.53125 -5.71875 3.171875 -5.570312 2.890625 -5.28125 C 2.609375 -5 2.457031 -4.660156 2.4375 -4.265625 Z M 2.4375 -4.265625 "/></g></g></g><g fill="#000000" fill-opacity="1"><g transform="translate(40.575872, 19.214756)"><g><path d="M 4.5625 -7.09375 L 4.5625 -5.609375 L 3.21875 -5.609375 L 3.21875 -2.171875 C 3.21875 -1.898438 3.28125 -1.71875 3.40625 -1.625 C 3.53125 -1.53125 3.691406 -1.484375 3.890625 -1.484375 C 3.984375 -1.484375 4.070312 -1.488281 4.15625 -1.5 C 4.25 -1.519531 4.320312 -1.535156 4.375 -1.546875 L 4.6875 -0.09375 C 4.582031 -0.0625 4.441406 -0.0234375 4.265625 0.015625 C 4.085938 0.0546875 3.875 0.0820312 3.625 0.09375 C 2.90625 0.125 2.328125 -0.0234375 1.890625 -0.359375 C 1.460938 -0.703125 1.25 -1.222656 1.25 -1.921875 L 1.25 -5.609375 L 0.28125 -5.609375 L 0.28125 -7.09375 L 1.25 -7.09375 L 1.25 -8.796875 L 3.21875 -8.796875 L 3.21875 -7.09375 Z M 4.5625 -7.09375 "/></g></g></g><g fill="#000000" fill-opacity="1"><g transform="translate(45.350821, 19.214756)"><g><path d="M 0.78125 0 L 0.78125 -7.09375 L 2.75 -7.09375 L 2.75 0 Z M 1.890625 -8 C 1.597656 -8 1.347656 -8.097656 1.140625 -8.296875 C 0.929688 -8.492188 0.828125 -8.726562 0.828125 -9 C 0.828125 -9.269531 0.929688 -9.503906 1.140625 -9.703125 C 1.347656 -9.898438 1.597656 -10 1.890625 -10 C 2.179688 -10 2.429688 -9.898438 2.640625 -9.703125 C 2.847656 -9.503906 2.953125 -9.269531 2.953125 -9 C 2.953125 -8.726562 2.847656 -8.492188 2.640625 -8.296875 C 2.429688 -8.097656 2.179688 -8 1.890625 -8 Z M 1.890625 -8 "/></g></g></g><g fill="#000000" fill-opacity="1"><g transform="translate(48.612339, 19.214756)"><g><path d="M 2.75 -4.09375 L 2.75 0 L 0.78125 0 L 0.78125 -7.09375 L 2.65625 -7.09375 L 2.65625 -5.84375 L 2.75 -5.84375 C 2.90625 -6.25 3.164062 -6.570312 3.53125 -6.8125 C 3.894531 -7.0625 4.34375 -7.1875 4.875 -7.1875 C 5.613281 -7.1875 6.207031 -6.945312 6.65625 -6.46875 C 7.101562 -5.988281 7.328125 -5.335938 7.328125 -4.515625 L 7.328125 0 L 5.359375 0 L 5.359375 -4.171875 C 5.359375 -4.597656 5.242188 -4.929688 5.015625 -5.171875 C 4.796875 -5.421875 4.488281 -5.546875 4.09375 -5.546875 C 3.695312 -5.546875 3.375 -5.414062 3.125 -5.15625 C 2.875 -4.90625 2.75 -4.550781 2.75 -4.09375 Z M 2.75 -4.09375 "/></g></g></g><g fill="#000000" fill-opacity="1"><g transform="translate(56.418757, 19.214756)"><g><path d="M 3.984375 2.765625 C 3.023438 2.765625 2.273438 2.578125 1.734375 2.203125 C 1.191406 1.828125 0.859375 1.367188 0.734375 0.828125 L 2.5625 0.59375 C 2.632812 0.78125 2.785156 0.953125 3.015625 1.109375 C 3.253906 1.265625 3.59375 1.34375 4.03125 1.34375 C 4.457031 1.34375 4.804688 1.238281 5.078125 1.03125 C 5.359375 0.832031 5.5 0.503906 5.5 0.046875 L 5.5 -1.25 L 5.421875 -1.25 C 5.285156 -0.957031 5.054688 -0.691406 4.734375 -0.453125 C 4.410156 -0.222656 3.960938 -0.109375 3.390625 -0.109375 C 2.859375 -0.109375 2.375 -0.226562 1.9375 -0.46875 C 1.507812 -0.71875 1.164062 -1.097656 0.90625 -1.609375 C 0.644531 -2.117188 0.515625 -2.769531 0.515625 -3.5625 C 0.515625 -4.363281 0.644531 -5.03125 0.90625 -5.5625 C 1.175781 -6.101562 1.53125 -6.507812 1.96875 -6.78125 C 2.40625 -7.050781 2.878906 -7.1875 3.390625 -7.1875 C 3.785156 -7.1875 4.117188 -7.117188 4.390625 -6.984375 C 4.660156 -6.847656 4.878906 -6.679688 5.046875 -6.484375 C 5.210938 -6.285156 5.335938 -6.09375 5.421875 -5.90625 L 5.5 -5.90625 L 5.5 -7.09375 L 7.453125 -7.09375 L 7.453125 0.0625 C 7.453125 0.65625 7.300781 1.148438 7 1.546875 C 6.707031 1.953125 6.300781 2.253906 5.78125 2.453125 C 5.257812 2.660156 4.660156 2.765625 3.984375 2.765625 Z M 4.015625 -1.578125 C 4.492188 -1.578125 4.863281 -1.75 5.125 -2.09375 C 5.382812 -2.445312 5.515625 -2.9375 5.515625 -3.5625 C 5.515625 -4.1875 5.382812 -4.6875 5.125 -5.0625 C 4.863281 -5.4375 4.492188 -5.625 4.015625 -5.625 C 3.535156 -5.625 3.164062 -5.429688 2.90625 -5.046875 C 2.65625 -4.660156 2.53125 -4.164062 2.53125 -3.5625 C 2.53125 -2.957031 2.65625 -2.472656 2.90625 -2.109375 C 3.164062 -1.753906 3.535156 -1.578125 4.015625 -1.578125 Z M 4.015625 -1.578125 "/></g></g></g><g fill="#000000" fill-opacity="1"><g transform="translate(64.372827, 19.214756)"><g><path d="M 5.953125 -6.734375 C 5.910156 -7.109375 5.75 -7.394531 5.46875 -7.59375 C 5.1875 -7.800781 4.804688 -7.90625 4.328125 -7.90625 C 3.835938 -7.90625 3.460938 -7.804688 3.203125 -7.609375 C 2.941406 -7.410156 2.8125 -7.160156 2.8125 -6.859375 C 2.8125 -6.515625 2.957031 -6.253906 3.25 -6.078125 C 3.550781 -5.910156 3.90625 -5.78125 4.3125 -5.6875 L 5.15625 -5.484375 C 5.707031 -5.359375 6.195312 -5.175781 6.625 -4.9375 C 7.050781 -4.707031 7.382812 -4.40625 7.625 -4.03125 C 7.875 -3.664062 8 -3.222656 8 -2.703125 C 7.988281 -1.835938 7.660156 -1.144531 7.015625 -0.625 C 6.378906 -0.113281 5.484375 0.140625 4.328125 0.140625 C 3.179688 0.140625 2.265625 -0.117188 1.578125 -0.640625 C 0.890625 -1.171875 0.535156 -1.945312 0.515625 -2.96875 L 2.453125 -2.96875 C 2.484375 -2.488281 2.664062 -2.128906 3 -1.890625 C 3.34375 -1.660156 3.773438 -1.546875 4.296875 -1.546875 C 4.804688 -1.546875 5.210938 -1.648438 5.515625 -1.859375 C 5.816406 -2.078125 5.972656 -2.359375 5.984375 -2.703125 C 5.972656 -3.023438 5.828125 -3.269531 5.546875 -3.4375 C 5.273438 -3.613281 4.882812 -3.765625 4.375 -3.890625 L 3.34375 -4.140625 C 2.539062 -4.335938 1.910156 -4.640625 1.453125 -5.046875 C 0.992188 -5.460938 0.765625 -6.019531 0.765625 -6.71875 C 0.765625 -7.289062 0.914062 -7.789062 1.21875 -8.21875 C 1.53125 -8.65625 1.957031 -8.988281 2.5 -9.21875 C 3.039062 -9.457031 3.65625 -9.578125 4.34375 -9.578125 C 5.050781 -9.578125 5.664062 -9.457031 6.1875 -9.21875 C 6.707031 -8.976562 7.113281 -8.644531 7.40625 -8.21875 C 7.707031 -7.789062 7.859375 -7.296875 7.859375 -6.734375 Z M 5.953125 -6.734375 "/></g></g></g><g fill="#000000" fill-opacity="1"><g transform="translate(72.608355, 19.214756)"><g><path d="M 3.984375 0.140625 C 3.265625 0.140625 2.640625 -0.015625 2.109375 -0.328125 C 1.585938 -0.640625 1.1875 -1.066406 0.90625 -1.609375 C 0.632812 -2.160156 0.5 -2.796875 0.5 -3.515625 C 0.5 -4.242188 0.640625 -4.878906 0.921875 -5.421875 C 1.203125 -5.972656 1.601562 -6.40625 2.125 -6.71875 C 2.644531 -7.03125 3.265625 -7.1875 3.984375 -7.1875 C 4.597656 -7.1875 5.140625 -7.070312 5.609375 -6.84375 C 6.078125 -6.625 6.441406 -6.3125 6.703125 -5.90625 C 6.972656 -5.5 7.125 -5.019531 7.15625 -4.46875 L 5.296875 -4.46875 C 5.242188 -4.820312 5.101562 -5.109375 4.875 -5.328125 C 4.65625 -5.546875 4.367188 -5.65625 4.015625 -5.65625 C 3.554688 -5.65625 3.1875 -5.46875 2.90625 -5.09375 C 2.632812 -4.726562 2.5 -4.210938 2.5 -3.546875 C 2.5 -2.867188 2.632812 -2.34375 2.90625 -1.96875 C 3.1875 -1.601562 3.554688 -1.421875 4.015625 -1.421875 C 4.347656 -1.421875 4.628906 -1.519531 4.859375 -1.71875 C 5.097656 -1.925781 5.242188 -2.21875 5.296875 -2.59375 L 7.15625 -2.59375 C 7.125 -2.050781 6.972656 -1.570312 6.703125 -1.15625 C 6.441406 -0.75 6.082031 -0.429688 5.625 -0.203125 C 5.164062 0.0234375 4.617188 0.140625 3.984375 0.140625 Z M 3.984375 0.140625 "/></g></g></g><g fill="#000000" fill-opacity="1"><g transform="translate(79.967203, 19.214756)"><g><path d="M 3.984375 0.140625 C 3.265625 0.140625 2.644531 -0.0078125 2.125 -0.3125 C 1.601562 -0.625 1.203125 -1.050781 0.921875 -1.59375 C 0.640625 -2.144531 0.5 -2.785156 0.5 -3.515625 C 0.5 -4.242188 0.640625 -4.882812 0.921875 -5.4375 C 1.203125 -5.988281 1.601562 -6.414062 2.125 -6.71875 C 2.644531 -7.03125 3.265625 -7.1875 3.984375 -7.1875 C 4.703125 -7.1875 5.320312 -7.03125 5.84375 -6.71875 C 6.363281 -6.414062 6.765625 -5.988281 7.046875 -5.4375 C 7.335938 -4.882812 7.484375 -4.242188 7.484375 -3.515625 C 7.484375 -2.785156 7.335938 -2.144531 7.046875 -1.59375 C 6.765625 -1.050781 6.363281 -0.625 5.84375 -0.3125 C 5.320312 -0.0078125 4.703125 0.140625 3.984375 0.140625 Z M 4 -1.390625 C 4.488281 -1.390625 4.859375 -1.59375 5.109375 -2 C 5.359375 -2.40625 5.484375 -2.914062 5.484375 -3.53125 C 5.484375 -4.144531 5.359375 -4.65625 5.109375 -5.0625 C 4.859375 -5.476562 4.488281 -5.6875 4 -5.6875 C 3.5 -5.6875 3.125 -5.476562 2.875 -5.0625 C 2.625 -4.65625 2.5 -4.144531 2.5 -3.53125 C 2.5 -2.914062 2.625 -2.40625 2.875 -2 C 3.125 -1.59375 3.5 -1.390625 4 -1.390625 Z M 4 -1.390625 "/></g></g></g><g fill="#000000" fill-opacity="1"><g transform="translate(87.667491, 19.214756)"><g><path d="M 0.78125 2.65625 L 0.78125 -7.09375 L 2.71875 -7.09375 L 2.71875 -5.90625 L 2.8125 -5.90625 C 2.90625 -6.09375 3.03125 -6.285156 3.1875 -6.484375 C 3.351562 -6.679688 3.566406 -6.847656 3.828125 -6.984375 C 4.097656 -7.117188 4.429688 -7.1875 4.828125 -7.1875 C 5.347656 -7.1875 5.820312 -7.050781 6.25 -6.78125 C 6.6875 -6.507812 7.035156 -6.101562 7.296875 -5.5625 C 7.566406 -5.019531 7.703125 -4.34375 7.703125 -3.53125 C 7.703125 -2.738281 7.570312 -2.070312 7.3125 -1.53125 C 7.0625 -0.988281 6.71875 -0.578125 6.28125 -0.296875 C 5.84375 -0.0234375 5.359375 0.109375 4.828125 0.109375 C 4.441406 0.109375 4.113281 0.046875 3.84375 -0.078125 C 3.582031 -0.203125 3.367188 -0.359375 3.203125 -0.546875 C 3.035156 -0.742188 2.90625 -0.941406 2.8125 -1.140625 L 2.75 -1.140625 L 2.75 2.65625 Z M 2.703125 -3.546875 C 2.703125 -2.910156 2.832031 -2.398438 3.09375 -2.015625 C 3.351562 -1.640625 3.722656 -1.453125 4.203125 -1.453125 C 4.679688 -1.453125 5.046875 -1.644531 5.296875 -2.03125 C 5.554688 -2.425781 5.6875 -2.929688 5.6875 -3.546875 C 5.6875 -4.160156 5.5625 -4.660156 5.3125 -5.046875 C 5.0625 -5.429688 4.691406 -5.625 4.203125 -5.625 C 3.722656 -5.625 3.351562 -5.4375 3.09375 -5.0625 C 2.832031 -4.6875 2.703125 -4.179688 2.703125 -3.546875 Z M 2.703125 -3.546875 "/></g></g></g><g fill="#000000" fill-opacity="1"><g transform="translate(95.612329, 19.214756)"><g><path d="M 4.015625 0.140625 C 3.285156 0.140625 2.65625 -0.00390625 2.125 -0.296875 C 1.601562 -0.597656 1.203125 -1.019531 0.921875 -1.5625 C 0.640625 -2.113281 0.5 -2.765625 0.5 -3.515625 C 0.5 -4.242188 0.640625 -4.882812 0.921875 -5.4375 C 1.203125 -5.988281 1.597656 -6.414062 2.109375 -6.71875 C 2.628906 -7.03125 3.238281 -7.1875 3.9375 -7.1875 C 4.5625 -7.1875 5.125 -7.050781 5.625 -6.78125 C 6.132812 -6.519531 6.535156 -6.117188 6.828125 -5.578125 C 7.117188 -5.046875 7.265625 -4.378906 7.265625 -3.578125 L 7.265625 -3.046875 L 2.4375 -3.046875 L 2.4375 -3.03125 C 2.4375 -2.507812 2.582031 -2.09375 2.875 -1.78125 C 3.164062 -1.476562 3.554688 -1.328125 4.046875 -1.328125 C 4.378906 -1.328125 4.664062 -1.394531 4.90625 -1.53125 C 5.144531 -1.675781 5.3125 -1.882812 5.40625 -2.15625 L 7.234375 -2.03125 C 7.085938 -1.375 6.734375 -0.847656 6.171875 -0.453125 C 5.609375 -0.0546875 4.890625 0.140625 4.015625 0.140625 Z M 2.4375 -4.265625 L 5.421875 -4.265625 C 5.421875 -4.679688 5.285156 -5.023438 5.015625 -5.296875 C 4.742188 -5.578125 4.394531 -5.71875 3.96875 -5.71875 C 3.53125 -5.71875 3.171875 -5.570312 2.890625 -5.28125 C 2.609375 -5 2.457031 -4.660156 2.4375 -4.265625 Z M 2.4375 -4.265625 "/></g></g></g></svg>