<svg xmlns="http://www.w3.org/2000/svg" xmlns:xlink="http://www.w3.org/1999/xlink" width="40" zoomAndPan="magnify" viewBox="0 0 30 30.000001" height="40" preserveAspectRatio="xMidYMid meet" version="1.0"><defs><clipPath id="3a6ab63635"><path d="M 3.386719 2.902344 L 26.613281 2.902344 L 26.613281 26.128906 L 3.386719 26.128906 Z M 3.386719 2.902344 " clip-rule="nonzero"/></clipPath></defs><g clip-path="url(#3a6ab63635)"><path fill="#ffffff" d="M 26.613281 14.515625 C 26.613281 20.933594 21.417969 26.128906 15 26.128906 C 8.582031 26.128906 3.386719 20.933594 3.386719 14.515625 C 3.386719 8.101562 8.582031 2.902344 15 2.902344 C 21.417969 2.902344 26.613281 8.101562 26.613281 14.515625 Z M 12.875 20.640625 C 18.023438 20.640625 20.839844 16.375 20.839844 12.675781 C 20.839844 12.554688 20.839844 12.429688 20.835938 12.316406 C 21.382812 11.921875 21.855469 11.425781 22.234375 10.863281 C 21.734375 11.085938 21.195312 11.234375 20.625 11.304688 C 21.207031 10.957031 21.648438 10.410156 21.855469 9.753906 C 21.316406 10.074219 20.71875 10.304688 20.082031 10.433594 C 19.570312 9.886719 18.84375 9.550781 18.035156 9.550781 C 16.492188 9.550781 15.238281 10.804688 15.238281 12.351562 C 15.238281 12.570312 15.261719 12.785156 15.3125 12.988281 C 12.984375 12.871094 10.925781 11.757812 9.542969 10.0625 C 9.304688 10.476562 9.164062 10.957031 9.164062 11.46875 C 9.164062 12.4375 9.65625 13.296875 10.414062 13.796875 C 9.953125 13.785156 9.523438 13.65625 9.148438 13.449219 C 9.148438 13.460938 9.148438 13.472656 9.148438 13.484375 C 9.148438 14.839844 10.109375 15.96875 11.394531 16.230469 C 11.160156 16.292969 10.914062 16.328125 10.65625 16.328125 C 10.476562 16.328125 10.300781 16.308594 10.128906 16.277344 C 10.484375 17.390625 11.515625 18.199219 12.742188 18.21875 C 11.785156 18.96875 10.574219 19.417969 9.261719 19.417969 C 9.035156 19.417969 8.816406 19.40625 8.59375 19.375 C 9.820312 20.175781 11.296875 20.640625 12.875 20.640625 " fill-opacity="1" fill-rule="nonzero"/></g></svg>